<?xml version="1.0" standalone="no"?>
<!DOCTYPE svg PUBLIC "-//W3C//DTD SVG 20010904//EN"
 "http://www.w3.org/TR/2001/REC-SVG-20010904/DTD/svg10.dtd">
<svg version="1.0" xmlns="http://www.w3.org/2000/svg"
 width="1280.000000pt" height="720.000000pt" viewBox="0 0 1280.000000 720.000000"
 preserveAspectRatio="xMidYMid meet">

<g transform="translate(0.000000,720.000000) scale(0.100000,-0.100000)"
fill="#000000" stroke="none">
<path d="M3804 7081 c-17 -4 -44 -15 -60 -23 -16 -9 -42 -22 -59 -29 -30 -13
-30 -13 -5 -16 14 -2 52 6 85 17 33 12 99 24 148 27 48 3 87 9 87 13 0 7 -104
21 -144 19 -12 -1 -35 -4 -52 -8z"/>
<path d="M4100 7063 c-8 -3 -17 -9 -20 -13 -7 -8 -227 -51 -302 -58 -43 -3
-63 -10 -71 -23 -7 -11 -15 -19 -20 -19 -4 0 -5 5 -2 10 4 6 -8 10 -29 10 -20
0 -36 5 -36 10 0 12 -47 13 -54 1 -3 -5 -22 -12 -42 -16 -20 -3 -59 -17 -88
-30 -28 -13 -82 -36 -120 -51 -86 -32 -93 -36 -182 -104 -203 -155 -413 -350
-454 -422 -12 -22 -44 -68 -70 -102 -68 -88 -100 -158 -158 -341 -58 -184 -78
-287 -87 -435 -3 -58 -8 -146 -12 -197 -5 -83 -4 -94 17 -128 l23 -37 26 44
c54 91 183 218 222 218 13 0 2 -78 -14 -98 -6 -7 -14 -70 -17 -140 -4 -70 -12
-139 -18 -154 -6 -15 -8 -29 -4 -32 4 -2 52 -21 107 -41 55 -20 146 -60 202
-88 l102 -51 56 11 c36 8 63 9 73 3 9 -5 34 -16 55 -24 23 -10 37 -21 37 -33
0 -10 9 -33 20 -51 11 -18 20 -49 20 -70 0 -21 4 -42 10 -48 5 -5 15 -36 21
-69 8 -44 8 -64 -2 -81 -10 -19 -9 -26 1 -39 7 -8 18 -15 25 -15 8 0 14 -19
17 -47 7 -67 1 -420 -7 -468 -4 -22 -6 -62 -5 -89 2 -82 -36 -197 -55 -166 -3
5 -1 10 6 10 17 0 -9 28 -43 46 -25 13 -29 13 -34 -1 -3 -8 -4 -22 0 -30 3 -8
0 -15 -7 -15 -8 0 -11 -12 -9 -38 5 -48 -47 -129 -98 -154 -44 -23 -173 -24
-210 -3 -14 8 -54 28 -89 46 -46 23 -92 60 -161 128 -90 90 -100 104 -159 226
-35 72 -67 137 -71 146 -5 9 -20 67 -34 130 -14 63 -35 148 -47 189 -17 63
-20 96 -17 205 4 125 5 132 37 192 31 58 34 72 41 185 6 126 5 148 -11 148
-16 0 -30 -50 -45 -169 -8 -63 -19 -122 -24 -132 -6 -9 -30 -27 -55 -39 -37
-18 -46 -28 -55 -61 -6 -22 -21 -59 -33 -82 -13 -23 -34 -88 -47 -144 -24
-100 -26 -103 -52 -103 -18 0 -28 5 -28 15 0 8 -4 15 -10 15 -5 0 -10 -4 -10
-10 0 -5 -20 -10 -45 -10 -25 0 -45 -4 -45 -10 0 -5 -7 -10 -15 -10 -8 0 -15
-4 -15 -10 0 -5 -30 -8 -72 -6 -88 4 -128 -2 -128 -19 0 -18 -84 -55 -125 -55
-24 0 -35 -5 -35 -15 0 -10 -10 -15 -32 -15 -18 0 -50 -6 -73 -14 -22 -8 -61
-18 -87 -21 -29 -4 -48 -11 -48 -19 0 -16 -164 -30 -191 -16 -10 6 -43 10 -73
10 -31 0 -56 4 -56 9 0 5 -26 11 -57 14 -76 6 -135 22 -149 41 -13 18 -31 21
-36 6 -4 -12 -68 4 -78 19 -3 6 -47 15 -97 21 -51 6 -116 20 -145 31 -29 10
-76 19 -105 19 -29 0 -53 5 -53 10 0 6 -18 10 -40 10 -32 0 -40 4 -40 19 0 15
-11 19 -61 25 -111 11 -99 38 -99 -229 l0 -235 40 0 40 0 0 -40 0 -40 -40 0
-40 0 0 -40 0 -40 40 0 c36 0 40 3 40 25 0 25 1 25 80 25 l80 0 0 30 c0 28 2
30 40 30 l40 0 0 -45 0 -45 -40 0 c-22 0 -40 -4 -40 -9 0 -4 91 -8 203 -7 111
1 183 0 160 -2 -29 -2 -43 -8 -43 -18 0 -10 12 -14 40 -14 36 0 40 -2 40 -25
0 -17 6 -25 18 -25 48 0 302 35 302 42 0 4 18 8 40 8 34 0 40 3 40 21 0 12 -8
28 -17 35 -16 12 -15 13 13 14 37 0 48 -9 33 -27 -9 -10 -5 -13 20 -13 17 0
31 5 31 10 0 6 22 10 48 10 36 0 54 5 67 20 10 11 13 20 7 20 -7 0 -12 5 -12
10 0 6 11 10 24 10 26 0 86 30 86 43 0 5 5 5 10 2 6 -3 10 1 10 9 0 23 42 61
62 58 11 -2 18 3 18 12 0 12 10 16 40 16 22 0 40 5 40 10 0 6 -5 10 -11 10 -6
0 -3 8 7 17 15 15 17 16 28 1 11 -15 13 -15 24 3 7 10 33 24 58 30 25 7 48 18
51 25 3 9 20 14 44 14 26 0 39 4 39 14 0 9 18 15 53 19 28 3 66 11 82 18 l30
13 -45 6 c-42 5 -39 6 38 14 45 4 82 11 82 15 0 7 71 44 74 39 1 -2 8 -16 16
-33 8 -16 18 -32 22 -35 9 -7 37 -153 49 -255 20 -174 115 -465 152 -465 4 0
7 -6 7 -13 0 -23 71 -98 124 -132 48 -30 167 -77 266 -105 82 -23 98 -31 109
-58 11 -28 31 -246 31 -336 0 -89 39 -136 46 -57 19 213 14 485 -12 667 -7 49
12 63 51 38 18 -12 24 -12 27 -2 3 8 18 -2 39 -27 19 -21 48 -53 66 -70 32
-31 50 -81 59 -174 2 -24 13 -55 23 -70 10 -14 22 -42 26 -61 4 -19 12 -44 18
-55 6 -11 10 -24 9 -28 -2 -8 41 -109 59 -137 5 -8 14 -26 19 -39 29 -67 146
-298 157 -309 7 -7 13 -17 13 -21 0 -5 14 -23 31 -40 17 -18 35 -46 41 -62 6
-18 17 -29 29 -29 10 0 19 -3 19 -7 0 -13 89 -103 103 -103 17 -1 51 -31 60
-52 3 -10 11 -18 17 -18 19 0 10 -19 -10 -22 -12 -2 -21 -7 -21 -13 0 -14 41
-19 54 -6 8 8 14 2 21 -21 9 -26 20 -35 58 -48 34 -11 53 -25 69 -50 20 -31
26 -35 59 -32 24 3 42 -2 53 -12 9 -9 30 -19 47 -22 17 -4 33 -11 36 -15 3 -5
21 -16 40 -24 20 -8 33 -18 30 -23 -6 -10 36 -50 69 -68 14 -7 26 -7 42 1 20
10 20 12 5 23 -15 10 -14 12 8 9 17 -1 24 -7 22 -18 -2 -17 34 -29 88 -29 14
0 30 -3 34 -7 4 -4 26 -9 49 -10 23 -2 47 -10 53 -18 6 -8 24 -15 40 -15 16 0
63 -12 104 -25 41 -14 92 -28 113 -31 20 -4 37 -10 37 -15 0 -5 13 -9 29 -9
17 0 33 -5 36 -10 3 -6 1 -10 -4 -10 -6 0 -11 -5 -11 -11 0 -8 4 -8 14 0 14
12 46 5 46 -10 0 -6 9 -5 20 1 24 13 80 -6 80 -27 0 -16 5 -16 31 -1 17 10 23
10 26 1 3 -7 15 -13 28 -13 28 0 41 -27 17 -33 -12 -3 -11 -5 6 -6 22 -1 31
-16 12 -23 -12 -4 -32 -68 -22 -68 4 0 18 7 30 16 17 11 21 21 16 40 -5 18 -1
29 12 39 22 17 54 19 54 4 0 -5 5 -7 11 -4 5 4 19 -1 29 -10 15 -13 39 -16
132 -16 147 1 292 10 342 21 22 5 43 7 47 4 9 -5 58 15 81 34 9 7 35 15 58 17
32 2 51 11 81 39 38 37 39 37 55 17 17 -20 18 -20 50 7 18 15 44 36 58 47 14
11 26 26 26 33 0 6 5 12 10 12 6 0 10 7 10 16 0 14 3 14 15 4 12 -10 15 -9 15
5 0 9 6 15 13 12 12 -4 14 -10 16 -56 1 -23 2 -23 19 -8 10 9 26 39 36 66 10
28 25 51 35 54 9 2 23 23 31 47 8 23 20 44 27 47 7 3 13 13 13 23 0 11 12 22
31 29 45 15 49 14 49 -14 0 -13 12 -50 27 -80 23 -47 31 -55 51 -53 40 5 51
60 50 237 -2 181 11 232 70 294 56 58 89 74 157 76 33 1 71 5 85 10 14 5 37
12 53 15 139 31 -279 32 -460 2 -109 -19 -136 -14 -148 23 -4 14 -11 18 -23
14 -14 -6 -15 -4 -5 8 8 9 11 33 8 59 -3 24 0 49 7 57 11 13 5 169 -7 181 -2
3 -11 -1 -20 -8 -13 -10 -15 -9 -15 8 0 27 17 37 35 22 18 -15 18 -12 4 28 -6
17 -16 33 -24 35 -11 5 -23 56 -30 137 -4 42 -31 95 -58 113 -15 10 -30 29
-33 42 -3 14 -15 30 -25 36 -11 5 -19 16 -19 24 0 9 -9 35 -21 60 -16 35 -27
45 -45 45 -13 0 -24 -6 -24 -13 0 -15 -35 -47 -53 -47 -7 0 -18 5 -24 11 -8 8
-13 8 -17 0 -4 -6 -2 -11 4 -11 6 0 -1 -11 -15 -26 -30 -30 -40 -26 -50 18 -6
28 -8 30 -14 14 -6 -16 -11 -12 -31 29 -20 41 -25 46 -31 29 -10 -26 -11 -36
0 -30 4 3 6 -6 3 -20 -4 -23 -5 -23 -18 -7 -12 16 -15 16 -23 3 -6 -8 -8 -25
-4 -38 4 -18 2 -21 -13 -16 -11 4 -24 11 -30 16 -9 6 -11 -3 -9 -32 3 -48 0
-44 50 -58 22 -5 55 -15 73 -21 30 -9 34 -8 41 12 5 12 5 27 0 33 -6 7 -4 16
6 24 9 7 15 8 15 2 0 -6 -6 -13 -12 -16 -7 -3 -2 -3 11 0 19 5 23 3 18 -10 -9
-22 12 -66 32 -67 9 -1 30 -1 46 0 20 1 40 -8 60 -27 48 -44 95 -108 95 -129
0 -10 7 -29 17 -42 9 -13 19 -38 22 -55 4 -17 10 -29 15 -26 14 9 28 -30 16
-45 -7 -8 -11 -31 -10 -52 5 -69 3 -75 -21 -63 -29 16 -35 5 -17 -33 8 -17 18
-46 22 -63 6 -26 11 -31 29 -27 l22 5 -22 -19 c-22 -18 -52 -80 -34 -68 5 3
12 1 16 -5 4 -6 -10 -8 -38 -4 -49 7 -67 -6 -45 -33 8 -11 9 -14 1 -10 -7 4
-28 1 -48 -7 -19 -8 -39 -16 -42 -18 -4 -2 -6 -13 -5 -25 2 -13 -1 -23 -7 -23
-6 0 -11 -6 -11 -12 0 -7 -6 -24 -13 -38 -19 -37 -27 -70 -16 -70 19 0 21 -31
3 -45 -18 -14 -18 -14 -1 -15 15 0 17 -6 11 -37 -8 -46 -13 -55 -25 -48 -5 4
-9 -8 -9 -24 0 -23 -5 -31 -17 -31 -14 0 -15 -2 -4 -9 10 -6 12 -18 7 -37 -4
-16 -8 -39 -9 -50 -1 -12 -6 -20 -12 -18 -17 6 -41 -19 -50 -51 -6 -21 -9 -25
-12 -13 -6 25 -33 22 -33 -3 0 -11 -4 -17 -10 -14 -6 4 -16 2 -23 -3 -26 -21
-85 -50 -91 -45 -3 4 -7 22 -7 42 -1 20 -3 28 -6 18 -6 -25 -23 -21 -24 6 -1
20 -1 20 -13 -5 -10 -22 -15 -25 -24 -16 -10 10 -15 10 -22 -2 -10 -15 -10
-11 5 80 2 17 2 30 -1 30 -12 0 -30 -26 -27 -37 3 -7 -3 -20 -11 -29 -15 -14
-16 -12 -11 26 4 27 2 39 -5 35 -5 -3 -10 -1 -10 5 0 6 -5 8 -11 5 -6 -4 -8
-13 -5 -20 3 -8 -2 -11 -14 -8 -12 3 -16 11 -13 21 5 11 2 14 -10 9 -11 -4
-17 -1 -17 8 0 8 -4 15 -10 15 -13 0 -13 41 1 60 8 12 10 9 6 -12 -2 -16 0
-28 4 -28 5 0 9 7 9 15 0 8 5 15 10 15 19 0 10 18 -25 53 -34 34 -46 67 -25
67 6 0 10 -4 10 -10 0 -16 28 0 33 19 3 14 -1 17 -22 13 -14 -3 -32 -9 -38
-15 -7 -5 -13 -6 -13 -1 0 5 -14 10 -30 11 -17 1 -30 -2 -30 -8 0 -6 -4 -8
-10 -4 -5 3 2 22 15 42 14 20 25 42 25 51 0 12 3 12 15 2 21 -18 20 6 -1 28
-11 11 -13 17 -5 20 7 2 5 13 -8 30 -10 15 -21 34 -24 42 -4 8 -4 0 -1 -18 3
-18 1 -32 -4 -32 -11 0 -27 47 -23 68 2 11 -8 15 -26 10 -5 -1 -7 -8 -5 -15 2
-7 -2 -13 -8 -13 -5 0 -10 10 -10 23 0 12 -5 29 -10 37 -8 12 -10 9 -10 -12 0
-14 -3 -33 -6 -42 -5 -13 -8 -13 -19 -2 -8 7 -17 25 -21 40 -7 31 -24 34 -31
6 -3 -11 -9 -17 -14 -14 -5 3 -17 -2 -26 -12 -16 -16 -18 -15 -30 12 -8 19
-12 23 -13 11 0 -10 -8 -21 -17 -24 -10 -4 -23 -14 -30 -22 -10 -13 -13 -9
-19 27 -9 54 -21 62 -29 18 -6 -32 -24 -46 -60 -50 -5 -1 -16 -11 -23 -23 -8
-16 -22 -23 -40 -22 -27 0 -27 1 -4 11 27 14 28 28 2 35 -20 5 -19 6 5 29 28
26 33 47 10 38 -26 -10 -17 13 16 40 28 24 29 26 9 26 -13 0 -24 -8 -27 -20
-3 -11 -9 -20 -14 -20 -5 0 -6 7 -2 16 5 13 2 15 -15 10 -17 -6 -21 -3 -19 16
1 12 10 31 19 40 10 10 18 25 18 33 0 8 5 15 11 15 6 0 9 6 6 13 -2 6 -11 11
-20 9 -11 -2 -15 2 -11 13 3 8 10 15 16 15 5 0 7 4 3 9 -3 5 -1 13 5 16 6 4
10 19 9 33 -3 41 0 64 9 59 6 -5 7 16 3 70 -1 22 -18 5 -23 -23 -2 -18 -5 -19
-15 -9 -9 10 -6 20 13 46 13 18 24 29 24 23 0 -5 5 -2 11 6 7 11 9 7 8 -20 -2
-63 1 -81 12 -74 6 3 9 15 6 25 -3 10 -2 18 2 17 18 -4 41 17 41 37 0 18 4 22
19 18 11 -3 21 2 24 11 7 19 -4 21 -21 4 -9 -9 -14 -6 -21 13 -7 16 -10 19
-10 7 -2 -30 -19 -29 -41 5 l-22 32 5 -27 c3 -23 0 -28 -15 -28 -11 0 -22 -9
-25 -20 -7 -26 -23 -26 -23 1 0 11 -4 17 -10 14 -14 -8 -13 6 4 46 7 19 16 48
20 64 6 29 6 29 -10 10 -16 -19 -16 -19 -10 15 4 21 3 30 -3 21 -6 -10 -10
-10 -16 -1 -12 20 -26 -11 -19 -42 4 -22 2 -27 -9 -22 -18 7 -34 -50 -19 -69
5 -7 13 -26 16 -44 4 -17 14 -34 22 -37 16 -6 20 -46 4 -46 -5 0 -10 -9 -10
-19 0 -11 -4 -22 -9 -25 -14 -9 -1 -45 20 -57 11 -5 19 -15 19 -21 0 -6 -3 -8
-7 -5 -3 4 -12 2 -20 -4 -9 -9 -13 -8 -13 0 0 19 -18 12 -25 -9 -4 -11 -10
-18 -15 -15 -4 3 -14 -8 -22 -25 -7 -16 -24 -35 -38 -40 -54 -23 -70 -35 -65
-48 2 -7 -6 -17 -19 -22 -13 -5 -27 -13 -30 -19 -4 -6 -13 -8 -21 -5 -7 3 -24
0 -37 -7 -13 -7 -26 -12 -30 -11 -4 1 -18 -2 -31 -7 -17 -7 -29 -6 -37 2 -10
9 -11 9 -5 -2 6 -11 2 -13 -18 -7 -14 3 -29 2 -32 -4 -3 -6 -17 -8 -31 -5 -13
3 -35 7 -49 10 -16 3 -23 10 -19 17 5 7 -1 9 -20 4 -19 -5 -26 -3 -26 8 0 8 8
17 18 19 13 4 11 5 -5 6 -13 0 -23 -5 -23 -11 0 -9 -4 -8 -10 2 -15 23 -12 30
13 30 12 0 29 5 37 11 12 9 11 10 -7 6 -13 -3 -26 -1 -29 4 -3 5 6 9 20 9 14
0 26 4 26 10 0 5 -7 7 -15 4 -8 -3 -24 1 -35 9 -21 15 -21 15 9 22 17 4 29 11
25 16 -3 5 -12 5 -22 0 -9 -4 -37 -8 -62 -9 -36 0 -40 2 -20 8 14 4 35 5 46 3
12 -3 25 0 28 6 4 6 15 11 25 11 10 0 26 9 36 20 16 18 16 20 2 20 -24 0 -21
27 3 35 11 3 20 10 20 15 0 5 2 14 5 22 3 8 -7 21 -25 31 -28 17 -44 45 -17
32 6 -3 2 2 -10 11 -13 9 -23 24 -23 32 0 12 -3 13 -12 4 -18 -18 -31 -14 -25
7 6 23 -12 53 -20 34 -2 -7 -9 -13 -14 -13 -17 0 -9 24 18 52 15 15 22 28 15
28 -6 0 -15 -8 -21 -17 -5 -10 -13 -15 -17 -11 -4 4 -3 13 3 20 5 7 15 26 22
42 11 27 11 28 -4 16 -14 -12 -18 -12 -25 0 -14 22 -25 3 -13 -22 8 -18 6 -30
-13 -59 -12 -20 -32 -39 -44 -42 -18 -5 -19 -3 -8 10 7 9 11 25 10 37 -4 34
26 96 52 106 32 12 42 30 18 30 -11 0 -31 -12 -46 -26 -14 -15 -26 -21 -26
-15 0 7 7 19 15 28 19 18 17 93 -2 86 -8 -3 -13 3 -13 17 l0 23 -19 -21 c-23
-28 -31 -28 -31 0 0 20 -1 21 -20 3 -13 -12 -20 -14 -20 -5 0 19 -48 3 -92
-32 -38 -30 -53 -30 -20 1 10 10 17 32 18 56 0 22 7 54 14 72 11 26 12 34 1
47 -12 15 -15 14 -30 -2 -9 -11 -23 -21 -31 -25 -9 -3 -10 -6 -2 -6 17 -1 15
-21 -2 -21 -10 0 -13 -8 -10 -25 4 -21 1 -25 -18 -24 -13 1 -32 -2 -43 -7 -18
-7 -18 -6 -7 9 8 9 22 19 33 22 12 4 19 16 19 30 0 14 9 29 20 35 11 6 19 18
18 28 -3 37 3 50 28 67 31 20 40 15 24 -15 -6 -11 -10 -26 -7 -33 2 -6 10 3
19 20 15 30 15 33 -4 49 -13 13 -17 25 -13 42 4 17 2 23 -7 19 -7 -2 -12 -16
-10 -30 2 -18 -4 -29 -19 -38 -20 -10 -21 -9 -14 7 12 29 14 65 4 58 -5 -3 -9
0 -9 5 0 20 -15 11 -27 -15 -10 -22 -10 -25 4 -20 11 5 14 2 9 -10 -3 -8 -6
-17 -6 -19 0 -2 -9 -1 -20 2 -23 6 -26 30 -7 58 7 11 18 33 25 49 12 26 11 28
-7 23 -11 -3 -20 -2 -19 2 2 20 -4 31 -17 31 -8 0 -15 7 -15 15 0 14 -3 13
-25 -1 -29 -19 -31 -13 -8 22 14 22 14 27 2 35 -8 5 -20 9 -27 9 -7 0 -12 6
-11 13 5 40 -14 50 -38 20 -12 -16 -13 -15 -11 16 2 21 -2 36 -9 38 -7 3 -13
0 -13 -5 0 -6 -11 -7 -27 -3 -18 5 -29 15 -31 30 -2 12 -9 20 -15 18 -14 -5
-57 50 -57 73 0 10 -11 29 -24 43 -15 16 -22 34 -19 45 2 11 -3 26 -12 36 -11
10 -18 37 -20 74 -2 31 -8 77 -15 102 -21 83 -40 205 -34 223 3 10 0 17 -9 17
-10 0 -12 11 -6 53 3 28 3 59 -1 67 -10 19 -1 80 12 80 5 0 6 15 2 35 -3 20
-2 35 2 34 19 -3 34 1 34 10 0 5 -9 7 -20 4 -30 -8 -37 23 -11 46 14 12 17 21
10 23 -15 5 -15 86 0 101 6 6 11 21 11 34 0 13 5 23 11 23 7 0 9 9 6 21 -7 27
12 59 31 51 11 -4 13 -1 7 8 -6 10 -4 12 9 7 10 -4 26 -2 37 3 26 15 170 52
195 51 12 0 38 15 57 34 20 19 38 35 40 35 2 0 2 -11 -1 -25 -2 -15 0 -25 7
-25 6 0 11 5 11 11 0 6 7 8 16 5 8 -3 25 1 37 9 25 16 157 28 157 14 0 -14 26
-11 40 6 7 8 25 15 40 15 16 0 30 6 33 13 3 8 10 6 21 -8 8 -11 16 -16 16 -11
0 6 16 -7 35 -29 35 -37 36 -44 18 -91 -2 -6 6 -14 19 -17 22 -6 22 -7 4 -20
-18 -13 -18 -14 3 -20 17 -4 21 -1 21 19 0 31 12 31 26 -1 14 -28 9 -35 -24
-35 l-25 0 23 -20 c26 -22 66 -27 72 -8 3 8 34 12 98 13 87 1 93 2 101 24 6
14 15 21 26 19 20 -4 31 -48 13 -48 -8 0 -10 -8 -7 -21 4 -16 2 -19 -10 -14
-9 3 -19 2 -22 -4 -7 -10 -63 -45 -106 -65 -17 -8 -38 -23 -48 -34 -17 -19
-17 -20 8 -24 14 -3 25 -1 25 3 0 5 10 9 23 9 16 0 18 -3 8 -9 -23 -15 2 -20
53 -10 27 5 51 7 53 5 10 -10 -12 -59 -31 -68 -18 -7 -21 -16 -18 -40 3 -23
-1 -35 -14 -46 -13 -10 -15 -16 -6 -19 6 -3 12 -11 12 -19 0 -8 10 -14 23 -14
12 0 27 -8 34 -19 12 -20 46 -29 131 -38 34 -3 52 -1 52 6 0 18 29 12 48 -10
39 -47 192 -131 242 -133 15 -1 26 -4 23 -8 -2 -5 1 -8 6 -8 6 0 11 6 11 13 0
9 2 9 9 -1 7 -11 11 -11 23 1 10 10 20 12 29 6 35 -22 30 -5 -11 36 -32 32
-46 41 -53 32 -5 -7 -6 -4 -2 10 3 12 1 24 -5 28 -5 3 -10 1 -10 -5 0 -26 -63
66 -163 240 -97 169 -211 451 -242 600 -13 61 3 28 44 -93 45 -134 187 -458
232 -532 29 -47 31 -45 13 13 -4 14 -2 22 5 22 7 0 8 6 2 18 -21 41 -103 236
-141 337 -71 186 -99 280 -109 368 -10 79 2 59 23 -39 17 -84 97 -336 113
-357 5 -7 18 -34 28 -62 10 -27 38 -92 62 -142 40 -87 45 -93 73 -93 33 0 41
-23 14 -38 -14 -8 -12 -15 13 -60 27 -50 56 -67 66 -39 3 9 7 9 20 -2 20 -16
23 -35 5 -28 -7 2 -21 1 -31 -2 -16 -6 -14 -13 20 -68 21 -34 56 -82 78 -106
38 -42 45 -45 155 -71 151 -35 326 -66 373 -66 45 0 86 27 122 81 28 43 55 43
56 0 l0 -26 20 26 21 26 39 -19 c21 -10 39 -25 39 -33 0 -8 4 -15 9 -15 9 0
242 149 251 161 14 18 77 41 123 45 61 5 52 -2 -14 -11 -50 -6 -112 -44 -234
-141 -81 -64 -138 -95 -214 -118 -72 -21 -118 -20 -232 4 -153 33 -186 39
-241 45 -28 2 -65 9 -82 14 -17 5 -51 12 -76 15 l-45 6 39 -24 c21 -13 68 -30
104 -37 37 -7 73 -18 80 -26 16 -15 48 -17 57 -3 4 6 11 7 17 4 6 -4 5 -10 -3
-16 -10 -6 -4 -8 19 -5 17 2 32 0 32 -5 0 -4 7 -8 16 -8 8 0 12 5 9 10 -8 13
-1 13 107 -6 124 -21 195 -14 300 30 13 6 22 -2 38 -34 12 -23 25 -38 31 -34
7 4 9 -1 5 -14 -6 -17 -3 -19 13 -15 11 3 19 10 18 15 -1 6 17 19 41 29 35 15
44 16 48 5 3 -8 1 -24 -6 -35 -22 -42 33 -89 68 -58 12 11 22 13 34 6 16 -9
16 -7 2 28 -9 21 -21 44 -26 50 -6 7 -21 50 -34 95 l-25 83 22 18 c28 23 36
22 44 -5 47 -176 65 -217 109 -249 38 -28 66 -36 79 -23 3 4 -12 33 -33 65
-22 32 -51 91 -65 131 -17 49 -23 60 -20 35 4 -21 8 -46 11 -55 8 -32 -28 53
-41 93 l-12 41 75 -2 c91 -2 86 5 102 -159 9 -104 14 -122 40 -160 34 -49 95
-79 151 -73 l34 3 -35 17 c-43 22 -25 23 83 7 71 -11 76 -10 113 14 49 30 184
210 184 244 0 11 30 75 39 83 16 13 31 52 25 62 -4 6 -3 8 2 5 6 -3 16 9 23
26 8 18 26 59 41 92 15 33 40 96 55 140 28 80 41 105 55 105 15 0 19 -45 6
-74 -7 -17 -27 -69 -45 -116 -39 -101 -38 -100 -92 -215 -68 -147 -104 -197
-237 -335 -85 -87 -98 -110 -62 -110 30 0 69 43 147 163 27 39 50 74 53 77 3
3 14 21 24 40 11 19 32 49 48 65 55 59 141 269 202 495 21 74 44 150 52 169 8
19 20 69 27 112 10 69 9 80 -6 97 -9 10 -17 23 -17 28 0 6 -16 28 -36 49 -46
51 -57 72 -38 72 7 0 14 -6 14 -13 0 -18 20 -28 32 -16 6 6 12 72 13 157 2 80
5 149 9 152 3 3 15 -2 26 -12 11 -10 23 -15 26 -12 4 4 0 55 -9 114 -11 75
-24 124 -43 160 -108 209 -522 420 -1069 544 -69 16 -106 29 -122 45 -50 50
-273 178 -273 156 0 -3 -5 -1 -12 6 -7 7 -31 12 -55 12 -28 0 -46 5 -49 14 -3
9 -23 13 -65 12 -32 -1 -59 -4 -59 -8 0 -9 -34 -11 -43 -2 -3 3 -30 8 -59 10
-29 3 -54 9 -56 14 -2 5 -10 6 -19 3 -8 -3 -19 0 -24 8 -7 12 -12 12 -29 1
-15 -9 -25 -10 -34 -3 -7 6 -16 8 -20 3 -12 -11 -108 -11 -130 0 -25 13 -62
18 -183 21 -51 1 -93 -1 -93 -5 0 -5 -7 -8 -15 -8 -8 0 -15 6 -15 13 0 8 -14
12 -40 12 -22 0 -40 3 -40 8 0 11 -71 -1 -84 -13 -5 -5 -19 -2 -31 6 -21 14
-24 13 -38 -6 -11 -16 -19 -19 -38 -12 -13 5 -30 7 -36 5 -16 -6 -17 9 -1 25
9 9 9 12 0 12 -7 0 -12 -5 -12 -11 0 -6 -7 -9 -15 -5 -21 8 -45 -3 -45 -20 0
-8 -4 -14 -10 -14 -5 0 -10 6 -10 14 0 11 -11 14 -45 12 -25 -2 -51 -8 -57
-14 -7 -5 -37 -10 -66 -11 -30 0 -59 -4 -65 -9 -7 -5 -34 -12 -61 -16 -27 -3
-54 -10 -60 -15 -6 -4 -20 -11 -31 -13 -11 -3 -29 -9 -39 -14 -14 -5 -17 -4
-12 4 11 18 3 15 -89 -28 -96 -46 -113 -50 -64 -17 130 87 494 223 729 273
108 23 446 26 595 5 129 -17 157 -12 95 18 -25 12 -60 33 -78 46 -18 13 -45
23 -61 23 -26 -1 -72 21 -176 86 -37 23 -66 32 -120 38 -128 12 -285 43 -335
66 -19 9 -60 16 -91 16 -32 1 -55 4 -52 9 2 4 -13 7 -34 8 -21 0 -75 4 -120 7
-46 4 -83 4 -83 0 0 -3 -6 -8 -12 -11 -7 -2 -5 -3 5 -2 9 2 17 -1 17 -6 0 -5
9 -9 19 -9 26 0 35 -16 15 -24 -9 -3 -34 -6 -57 -6 -71 0 -273 -56 -359 -99
-87 -44 -108 -50 -88 -26 7 8 17 15 23 15 6 0 31 17 57 39 31 26 60 41 90 46
56 9 80 21 80 40 0 8 5 15 10 15 6 0 22 7 36 17 19 12 22 18 12 24 -14 10
-125 11 -148 2z m-426 -137 c-4 -10 1 -12 19 -9 14 3 28 0 31 -6 5 -7 -2 -11
-18 -11 -14 0 -34 -8 -43 -17 -10 -10 -29 -17 -42 -15 -23 4 -23 4 10 37 37
35 51 43 43 21z m976 -61 c-14 -16 -80 -21 -80 -6 0 6 17 12 38 14 20 2 41 4
46 5 5 1 3 -5 -4 -13z m47 9 c-3 -3 -12 -4 -19 -1 -8 3 -5 6 6 6 11 1 17 -2
13 -5z m-162 -24 c-119 -34 -148 -41 -158 -37 -7 2 6 9 28 16 22 6 46 15 53
19 6 5 33 9 60 9 42 1 44 1 17 -7z m275 -300 c0 -5 -2 -10 -4 -10 -3 0 -8 5
-11 10 -3 6 -1 10 4 10 6 0 11 -4 11 -10z m447 4 c-3 -3 -12 -4 -19 -1 -8 3
-5 6 6 6 11 1 17 -2 13 -5z m528 -150 c138 -14 259 -33 252 -41 -2 -2 -35 1
-73 6 -248 35 -595 43 -727 17 -42 -8 -117 -31 -165 -50 -61 -24 -112 -37
-163 -41 -395 -32 -782 -77 -969 -111 -47 -9 -94 -17 -106 -18 -11 -2 -26 -6
-33 -11 -10 -5 -10 -3 0 13 17 27 102 77 171 101 120 41 390 88 648 111 300
27 374 32 592 39 257 9 364 6 573 -15z m-165 -236 c63 -6 152 -11 197 -11 46
0 81 -3 78 -5 -9 -9 49 -33 67 -29 17 5 24 -13 19 -48 -1 -5 5 -2 13 8 13 17
19 18 50 7 20 -6 36 -18 36 -25 0 -8 18 -20 40 -26 22 -7 40 -17 40 -22 0 -6
16 -7 40 -3 25 4 40 2 40 -4 0 -5 -7 -10 -15 -10 -22 0 -18 -12 11 -35 74 -58
125 -111 130 -134 4 -14 18 -36 32 -48 14 -13 22 -23 18 -23 -4 0 2 -12 13
-26 11 -14 18 -31 15 -39 -3 -8 4 -20 15 -27 12 -7 21 -18 21 -24 0 -6 7 -17
15 -24 9 -8 15 -30 15 -56 0 -32 4 -44 15 -44 17 0 31 -43 20 -61 -4 -6 -1
-16 6 -21 10 -7 8 -8 -8 -5 -33 7 -28 -2 7 -15 29 -9 29 -11 13 -24 -16 -12
-15 -13 17 -14 19 -1 29 -4 22 -7 -7 -2 -113 14 -236 38 -123 23 -230 39 -238
37 -7 -3 -19 -34 -27 -69 -8 -35 -33 -127 -57 -204 -23 -77 -50 -169 -59 -204
-17 -65 -47 -135 -63 -145 -5 -3 -88 20 -183 50 -282 90 -256 77 -261 135 -5
52 -33 93 -71 105 -18 6 -19 12 -13 68 31 296 37 359 32 364 -3 3 -86 13 -183
23 -98 10 -198 21 -223 24 l-44 7 32 26 c22 19 32 36 32 55 0 31 17 66 42 85
15 11 16 16 5 33 -10 16 -9 21 3 29 23 15 30 12 30 -10 0 -11 5 -20 10 -20 6
0 10 -9 10 -20 0 -17 4 -19 28 -14 15 4 24 3 20 -1 -14 -15 14 -35 41 -30 22
4 23 4 6 -4 -19 -8 -19 -9 7 -19 24 -10 74 -15 333 -37 102 -9 47 3 -100 21
-152 18 -210 32 -138 33 24 1 48 8 57 17 19 19 21 35 4 33 -7 -1 -19 -1 -27 0
-20 2 7 31 29 31 10 0 23 7 30 15 15 18 37 19 43 3 3 -10 10 -8 23 5 14 12 15
17 4 17 -9 0 -7 7 8 20 15 14 22 33 22 56 l0 36 -60 -4 c-61 -3 -67 1 -54 36
8 21 24 21 24 0 0 -8 5 -12 10 -9 6 4 8 10 5 15 -3 5 0 12 6 16 6 3 15 0 20
-7 6 -10 9 -7 9 11 1 31 25 67 33 48 4 -10 7 -10 14 -1 5 7 23 11 41 9 37 -5
42 1 10 13 -21 8 -19 9 15 16 26 5 42 4 50 -5 9 -9 5 -11 -23 -6 -30 6 -32 5
-16 -5 14 -9 27 -9 50 -1 20 7 53 8 91 3 l60 -8 -58 -2 c-46 -1 -65 -7 -99
-31 -22 -16 -37 -30 -32 -30 5 0 4 -4 -1 -8 -30 -21 -51 -162 -24 -162 5 0 7
-5 3 -12 -5 -8 -2 -9 12 -3 10 4 30 10 42 13 18 3 20 7 10 13 -11 8 -11 10 0
18 11 6 10 10 -5 16 -15 7 -13 9 12 14 34 8 87 -8 82 -23 -6 -17 93 -47 130
-40 18 3 33 10 33 15 0 19 21 8 32 -16 6 -14 16 -24 22 -22 11 4 11 27 0 75
-6 27 -24 29 -31 2 -3 -11 -9 -17 -14 -14 -13 8 -11 72 2 80 8 4 9 -1 4 -16
-5 -16 -4 -21 6 -18 25 8 22 43 -6 58 -14 7 -25 17 -25 22 0 4 -7 8 -16 8 -8
0 -12 4 -9 10 3 5 -9 19 -27 30 -45 27 -14 25 42 -3 86 -43 137 -162 109 -255
-15 -53 -61 -107 -110 -132 -50 -26 -51 -35 -1 -15 57 24 80 42 108 85 59 89
37 218 -51 299 -53 48 -70 53 -315 86 -365 49 -409 46 -483 -34 -59 -64 -79
-131 -62 -213 5 -25 4 -38 -3 -38 -14 0 -26 80 -20 140 8 84 77 160 175 196
41 14 162 12 373 -8z m-233 -34 c-3 -3 -12 -4 -19 -1 -8 3 -5 6 6 6 11 1 17
-2 13 -5z m-137 -19 c-7 -8 -9 -15 -4 -15 5 0 2 -5 -6 -10 -13 -8 -12 -10 3
-10 9 0 17 -5 17 -11 0 -5 5 -7 10 -4 13 8 12 -1 -1 -48 -5 -21 -14 -35 -20
-32 -5 4 -9 1 -9 -5 0 -7 -7 -10 -15 -6 -10 4 -15 -1 -15 -14 0 -11 -4 -20 -8
-20 -5 0 -17 -8 -28 -19 -32 -29 -64 -36 -65 -14 -4 77 22 153 64 183 56 39
101 54 77 25z m204 6 c19 -7 19 -8 -2 -13 -12 -4 -20 -2 -17 2 3 5 -3 11 -12
13 -12 3 -13 5 -3 5 8 0 24 -3 34 -7z m92 -9 c-10 -2 -22 0 -28 6 -6 6 0 7 19
4 21 -5 23 -7 9 -10z m-230 -109 c-10 -10 -19 5 -10 18 6 11 8 11 12 0 2 -7 1
-15 -2 -18z m380 -16 l27 -24 -21 -21 c-29 -29 -34 -28 -21 5 9 24 7 30 -11
45 -12 10 -17 18 -12 18 6 0 23 -11 38 -23z m-56 -16 c0 -11 -4 -23 -10 -26
-6 -4 -10 5 -10 19 0 14 5 26 10 26 6 0 10 -9 10 -19z m220 -17 c0 -8 5 -12
10 -9 6 3 10 1 10 -5 0 -6 5 -8 10 -5 6 3 10 2 10 -4 0 -18 -44 -41 -77 -41
-31 0 -33 2 -27 28 11 48 64 78 64 36z m-82 -23 c3 -8 -1 -12 -9 -9 -7 2 -15
10 -17 17 -3 8 1 12 9 9 7 -2 15 -10 17 -17z m1102 -292 c0 -11 -4 -17 -10
-14 -5 3 -10 13 -10 21 0 8 5 14 10 14 6 0 10 -9 10 -21z m-40 1 c0 -5 -4 -10
-10 -10 -5 0 -10 5 -10 10 0 6 5 10 10 10 6 0 10 -4 10 -10z m-2083 -312 c-3
-8 -6 -5 -6 6 -1 11 2 17 5 13 3 -3 4 -12 1 -19z m-40 -10 c-3 -8 -6 -5 -6 6
-1 11 2 17 5 13 3 -3 4 -12 1 -19z m-10 -140 c-2 -13 -4 -5 -4 17 -1 22 1 32
4 23 2 -10 2 -28 0 -40z m340 -40 c-3 -8 -6 -5 -6 6 -1 11 2 17 5 13 3 -3 4
-12 1 -19z m-970 -60 c-3 -8 -6 -5 -6 6 -1 11 2 17 5 13 3 -3 4 -12 1 -19z
m1064 -207 c21 -58 37 -106 35 -108 -7 -8 -97 237 -95 260 0 7 5 -1 11 -18 6
-16 28 -77 49 -134z m-434 127 c-3 -8 -6 -5 -6 6 -1 11 2 17 5 13 3 -3 4 -12
1 -19z m-27 -98 c0 -5 -5 -10 -11 -10 -5 0 -7 5 -4 10 3 6 8 10 11 10 2 0 4
-4 4 -10z m40 -27 c0 -6 -8 -9 -20 -6 -16 4 -18 9 -9 25 9 17 13 18 20 7 5 -8
9 -19 9 -26z m2224 -39 c9 -3 13 -10 10 -15 -3 -5 7 -9 23 -10 53 -1 186 -34
191 -47 6 -18 -46 -15 -130 7 -40 11 -92 25 -115 31 -26 6 -43 17 -43 25 0 15
35 20 64 9z m-1667 -276 c13 -27 21 -48 18 -48 -7 0 -91 169 -99 200 -4 14 7
-4 25 -40 17 -36 43 -86 56 -112z m1888 143 c44 -6 98 -13 120 -16 22 -3 55
-7 74 -10 18 -2 36 -6 38 -9 3 -3 -3 -29 -13 -58 -10 -29 -19 -55 -19 -58 -1
-3 -8 -21 -16 -40 -9 -19 -24 -56 -34 -83 -16 -42 -61 -105 -69 -96 -2 2 0 45
4 94 8 95 7 105 -14 105 -10 0 -14 -18 -15 -64 0 -36 -10 -120 -20 -187 -18
-112 -23 -125 -52 -155 -18 -19 -30 -34 -26 -34 8 0 -41 -57 -82 -96 -49 -46
-65 -49 -139 -30 -37 9 -85 21 -107 27 -22 6 -53 8 -70 5 -16 -3 -25 -3 -20 2
11 8 13 81 3 97 -4 6 -8 44 -9 85 -1 41 -6 86 -11 99 -11 30 -5 36 16 16 9 -9
16 -12 16 -5 0 6 12 16 26 22 24 11 25 16 19 53 -4 22 -7 45 -8 52 0 14 -25
25 -38 17 -5 -3 -9 -1 -9 5 0 5 -6 11 -12 14 -7 2 -5 3 5 2 15 -3 23 13 18 39
-1 5 5 16 14 26 20 22 65 23 65 3 0 -10 7 -14 20 -10 11 3 20 1 20 -5 0 -5 5
-8 12 -6 6 2 12 20 13 40 2 48 9 55 55 63 25 4 40 12 40 21 0 8 7 14 15 14 8
0 15 5 15 10 0 6 7 10 15 10 11 0 13 8 8 31 l-6 31 39 -6 c21 -3 75 -10 119
-15z m-2197 -38 c5 -16 13 -37 18 -47 5 -13 4 -17 -3 -13 -25 15 -18 -20 8
-43 33 -30 55 -80 36 -80 -20 0 -136 80 -148 101 -16 31 -7 73 16 78 11 2 24
9 28 17 13 23 34 16 45 -13z m1173 -4 c-5 -13 -10 -19 -10 -12 -1 15 10 45 15
40 3 -2 0 -15 -5 -28z m-827 -175 c3 -8 2 -12 -4 -9 -6 3 -10 10 -10 16 0 14
7 11 14 -7z m-639 -14 c-3 -5 -13 -10 -21 -10 -8 0 -14 5 -14 10 0 6 9 10 21
10 11 0 17 -4 14 -10z m42 -36 c-9 -9 -28 6 -21 18 4 6 10 6 17 -1 6 -6 8 -13
4 -17z m2032 -51 c13 -45 6 -53 -48 -63 -40 -7 -41 -7 -47 26 -8 44 -1 61 28
67 52 10 57 8 67 -30z m-544 17 c3 -5 2 -10 -4 -10 -5 0 -13 5 -16 10 -3 6 -2
10 4 10 5 0 13 -4 16 -10z m-58 -33 c7 -8 12 -97 5 -100 -19 -12 -52 15 -61
50 -17 61 -15 66 21 59 17 -3 33 -8 35 -9z m463 3 c8 -5 11 -10 5 -10 -5 0
-17 5 -25 10 -8 5 -10 10 -5 10 6 0 17 -5 25 -10z m-996 -111 c54 -13 94 -25
88 -27 -9 -3 -47 6 -174 39 -21 5 -38 15 -38 21 0 7 4 7 13 1 6 -6 56 -21 111
-34z m276 25 c0 -9 -7 -14 -17 -12 -25 5 -28 28 -4 28 12 0 21 -6 21 -16z m25
-64 c-10 -11 -23 -20 -29 -20 -6 1 0 10 13 20 30 26 39 26 16 0z m-95 -11 c22
-13 1 -10 -55 6 l-50 15 45 -6 c25 -4 52 -10 60 -15z m540 3 c-1 -18 -19 -33
-46 -38 l-29 -5 29 30 c26 27 46 33 46 13z m390 -272 c0 -5 -2 -10 -4 -10 -3
0 -8 5 -11 10 -3 6 -1 10 4 10 6 0 11 -4 11 -10z m-6590 -129 c0 -5 10 -11 22
-13 13 -2 24 -11 26 -20 3 -15 -5 -18 -52 -18 -31 0 -56 3 -56 7 0 10 42 53
52 53 4 0 8 -4 8 -9z m317 -113 c-3 -7 -5 -2 -5 12 0 14 2 19 5 13 2 -7 2 -19
0 -25z m3465 -500 c-6 -6 -15 -8 -19 -4 -4 4 -1 11 7 16 19 12 27 3 12 -12z
m87 -42 c-12 -33 -39 -51 -39 -26 0 6 4 10 8 10 4 0 13 14 20 32 6 17 14 29
18 26 3 -4 0 -23 -7 -42z m-22 -78 c-3 -8 -6 -5 -6 6 -1 11 2 17 5 13 3 -3 4
-12 1 -19z m-52 3 c3 -5 1 -12 -5 -16 -5 -3 -10 1 -10 9 0 18 6 21 15 7z m183
-60 c3 -10 0 -12 -12 -8 -9 4 -16 2 -16 -3 0 -12 -11 -12 -29 -1 -7 5 -10 14
-6 20 9 16 57 10 63 -8z m46 -14 c-3 -8 -12 -18 -20 -21 -11 -4 -11 0 2 20 18
26 28 27 18 1z m-244 -17 c0 -5 -8 -10 -17 -10 -15 0 -16 2 -3 10 19 12 20 12
20 0z m145 0 c-3 -5 -13 -10 -21 -10 -8 0 -13 -4 -9 -9 3 -5 1 -12 -5 -16 -5
-3 -10 -1 -10 4 0 6 -12 11 -26 11 -15 0 -23 4 -18 11 3 6 17 8 30 5 14 -4 24
-2 24 4 0 5 9 10 21 10 11 0 17 -4 14 -10z m38 -30 c-13 -5 -23 -16 -23 -25 0
-10 -10 -15 -27 -15 l-28 0 24 -13 c14 -6 27 -19 29 -27 4 -12 1 -11 -15 3
-14 12 -29 15 -51 11 -20 -4 -32 -3 -32 4 0 6 7 9 15 6 10 -4 15 0 15 15 0 17
6 21 30 21 20 0 30 5 30 15 0 10 9 15 28 14 26 0 26 -1 5 -9z m77 0 c0 -5 -4
-10 -10 -10 -5 0 -10 5 -10 10 0 6 5 10 10 10 6 0 10 -4 10 -10z m-250 -20
c-13 -11 -25 -20 -28 -20 -3 0 3 9 13 20 10 11 23 20 28 20 6 0 0 -9 -13 -20z
m240 -8 c0 -11 -22 -32 -32 -32 -5 0 -4 9 2 20 11 20 30 28 30 12z m10 -37
c-9 -10 -9 -15 -1 -15 6 0 11 -5 11 -11 0 -8 -4 -8 -14 1 -16 12 -11 40 6 40
6 0 5 -6 -2 -15z m-120 -21 c0 -9 -32 -33 -44 -34 -5 0 -1 9 10 19 19 20 34
26 34 15z m40 -18 c0 -3 -4 -8 -10 -11 -5 -3 -10 -1 -10 4 0 6 5 11 10 11 6 0
10 -2 10 -4z m13 -26 c18 -1 15 -4 -13 -19 -19 -10 -39 -15 -43 -11 -13 11 4
42 20 36 8 -3 24 -6 36 -6z m-100 -52 c-14 -26 -18 -29 -21 -15 -2 10 5 25 15
32 25 20 26 19 6 -17z m147 17 c0 -1 -7 -8 -15 -15 -13 -11 -14 -10 -9 5 6 15
4 16 -14 6 -11 -6 -27 -11 -34 -10 -7 0 0 7 17 14 24 11 55 11 55 0z m96 -1
c-3 -9 -6 -18 -6 -20 0 -2 -8 -4 -17 -3 -11 0 -13 3 -5 6 6 2 12 11 12 19 0 8
5 14 11 14 6 0 8 -7 5 -16z m-16 -94 c0 -5 -5 -10 -11 -10 -5 0 -7 5 -4 10 3
6 8 10 11 10 2 0 4 -4 4 -10z m175 -60 c-3 -5 -14 -10 -23 -10 -15 0 -15 2 -2
10 20 13 33 13 25 0z m-41 -316 c3 -8 2 -12 -4 -9 -6 3 -10 10 -10 16 0 14 7
11 14 -7z m281 -24 c8 -13 -5 -13 -25 0 -13 8 -13 10 2 10 9 0 20 -4 23 -10z
m-362 -7 c-7 -2 -19 -2 -25 0 -7 3 -2 5 12 5 14 0 19 -2 13 -5z m757 -53 c0
-5 -5 -10 -11 -10 -5 0 -7 5 -4 10 3 6 8 10 11 10 2 0 4 -4 4 -10z m-69 -46
c-12 -9 -28 -13 -36 -10 -27 10 -15 23 22 24 36 2 36 1 14 -14z m-61 -14 c0
-5 -5 -10 -11 -10 -5 0 -7 5 -4 10 3 6 8 10 11 10 2 0 4 -4 4 -10z m589 -156
c3 -16 1 -17 -13 -5 -19 16 -21 34 -3 29 6 -3 14 -13 16 -24z m-27 -18 c7 4 8
2 4 -4 -9 -15 -33 -15 -41 -2 -4 6 -1 18 7 27 12 15 13 14 16 -5 2 -13 8 -19
14 -16z m-225 2 c-3 -8 -6 -5 -6 6 -1 11 2 17 5 13 3 -3 4 -12 1 -19z m1283
-33 c0 -51 -2 -55 -23 -55 -20 0 -22 4 -19 43 8 82 42 92 42 12z m-1317 20
c-3 -9 -8 -14 -10 -11 -3 3 -2 9 2 15 9 16 15 13 8 -4z m312 -5 c4 -6 1 -9 -6
-8 -9 2 -13 -8 -10 -32 2 -35 2 -35 -14 -13 -12 18 -13 27 -5 43 12 22 25 26
35 10z m15 -123 c0 -4 -7 -2 -15 7 -8 8 -15 21 -15 28 1 14 30 -20 30 -35z
m720 -133 c0 -8 -4 -14 -10 -14 -5 0 -10 9 -10 21 0 11 5 17 10 14 6 -3 10
-13 10 -21z m-533 -146 c-3 -8 -6 -5 -6 6 -1 11 2 17 5 13 3 -3 4 -12 1 -19z"/>
<path d="M4458 6343 c6 -2 18 -2 25 0 6 3 1 5 -13 5 -14 0 -19 -2 -12 -5z"/>
<path d="M5870 6130 c34 -11 60 -11 35 0 -11 5 -29 8 -40 8 -16 0 -15 -2 5 -8z"/>
<path d="M5780 5830 c0 -5 5 -10 10 -10 6 0 10 5 10 10 0 6 -4 10 -10 10 -5 0
-10 -4 -10 -10z"/>
<path d="M5440 5805 c0 -9 5 -15 11 -13 6 2 11 8 11 13 0 5 -5 11 -11 13 -6 2
-11 -4 -11 -13z"/>
<path d="M5897 5803 c-9 -16 13 -55 28 -49 8 3 15 1 15 -4 0 -6 5 -10 11 -10
6 0 9 6 6 14 -3 7 0 19 6 25 6 6 9 12 6 15 -10 9 -67 16 -72 9z"/>
<path d="M5688 5663 c7 -3 16 -2 19 1 4 3 -2 6 -13 5 -11 0 -14 -3 -6 -6z"/>
<path d="M5738 5653 c12 -2 30 -2 40 0 9 3 -1 5 -23 4 -22 0 -30 -2 -17 -4z"/>
<path d="M5818 5643 c7 -3 16 -2 19 1 4 3 -2 6 -13 5 -11 0 -14 -3 -6 -6z"/>
<path d="M6528 5403 c6 -2 18 -2 25 0 6 3 1 5 -13 5 -14 0 -19 -2 -12 -5z"/>
<path d="M6885 4554 c-9 -9 -13 -19 -9 -23 4 -3 9 0 12 8 4 11 6 11 13 0 7
-11 9 -11 9 3 0 9 6 19 13 21 7 4 6 6 -5 6 -9 1 -24 -6 -33 -15z"/>
<path d="M7143 4520 c-3 -11 -10 -20 -15 -20 -5 0 -7 -4 -4 -8 5 -9 -39 -82
-57 -93 -5 -4 -7 -15 -5 -25 3 -15 10 -9 32 26 16 25 33 47 37 48 5 2 9 10 9
18 0 8 4 14 9 14 5 0 14 14 20 30 8 25 7 30 -5 30 -9 0 -18 -9 -21 -20z"/>
<path d="M6761 4141 c-8 -5 -10 -14 -6 -21 5 -8 4 -11 -2 -7 -6 4 -13 0 -17
-8 -3 -8 -2 -15 2 -15 4 0 8 -12 9 -26 1 -33 19 -50 59 -57 26 -5 33 -2 37 13
3 10 -3 29 -11 42 -9 13 -15 25 -14 28 2 2 -1 6 -7 8 -6 2 -11 -1 -11 -7 0 -6
-6 -11 -14 -11 -17 0 -19 52 -2 62 6 4 7 8 1 8 -5 0 -16 -4 -24 -9z"/>
<path d="M4222 7013 c-6 -3 -10 -9 -6 -14 7 -12 54 -12 54 0 0 11 -30 19 -48
14z"/>
<path d="M3658 6993 c7 -3 16 -2 19 1 4 3 -2 6 -13 5 -11 0 -14 -3 -6 -6z"/>
<path d="M4860 6600 c0 -5 5 -10 10 -10 6 0 10 5 10 10 0 6 -4 10 -10 10 -5 0
-10 -4 -10 -10z"/>
<path d="M12745 4760 c-4 -22 -11 -40 -17 -40 -7 0 -7 -5 1 -13 6 -8 10 -30 9
-51 -1 -28 -8 -42 -25 -53 -13 -9 -31 -29 -39 -44 -14 -28 -44 -40 -44 -19 0
6 -13 4 -30 -5 -16 -8 -35 -15 -42 -15 -7 0 -24 -9 -38 -20 -31 -24 -40 -25
-40 -3 0 15 -1 15 -18 0 -13 -12 -37 -17 -80 -17 -54 0 -62 -2 -62 -19 0 -24
-36 -34 -107 -32 -51 2 -53 1 -53 -23 0 -24 -4 -26 -40 -26 -33 0 -40 -3 -40
-20 0 -17 7 -20 39 -20 22 0 41 -4 43 -9 5 -15 149 -21 154 -6 4 8 35 16 85
20 43 4 79 10 79 15 0 4 40 10 88 13 49 4 104 13 124 21 22 9 49 13 72 9 34
-5 52 9 24 20 -10 4 -10 7 0 18 9 9 12 61 12 186 l0 173 -24 0 c-20 0 -25 -6
-31 -40z"/>
<path d="M2660 4771 c0 -5 14 -14 31 -21 43 -18 93 -88 129 -183 17 -45 37
-89 44 -97 17 -19 31 -60 27 -80 -1 -8 -11 -22 -21 -30 -27 -21 -49 -92 -36
-113 7 -12 5 -30 -8 -66 -16 -45 -16 -52 -2 -80 9 -16 16 -45 16 -64 0 -19 9
-45 19 -58 15 -18 17 -28 9 -43 -13 -24 16 -55 63 -65 50 -11 59 -5 59 43 0
30 -10 58 -35 100 -19 32 -35 65 -35 73 0 8 10 44 23 81 16 48 32 76 60 101
20 18 37 37 37 42 0 19 -43 8 -62 -16 -25 -32 -38 -24 -38 26 0 22 -9 59 -20
81 -11 23 -31 84 -45 135 -13 51 -30 101 -37 110 -33 42 -88 90 -127 111 -48
25 -51 26 -51 13z"/>
<path d="M4508 4773 c-27 -7 -22 -23 7 -23 16 0 25 6 25 15 0 15 -2 16 -32 8z"/>
<path d="M4340 4760 c0 -5 5 -10 10 -10 6 0 10 5 10 10 0 6 -4 10 -10 10 -5 0
-10 -4 -10 -10z"/>
<path d="M4395 4730 l-40 -20 37 5 c20 3 50 12 65 20 l28 15 -25 0 c-14 0 -43
-9 -65 -20z"/>
<path d="M5100 4495 c0 -5 5 -17 10 -25 5 -8 10 -10 10 -5 0 6 -5 17 -10 25
-5 8 -10 11 -10 5z"/>
<path d="M3300 4330 c0 -5 5 -10 10 -10 6 0 10 5 10 10 0 6 -4 10 -10 10 -5 0
-10 -4 -10 -10z"/>
<path d="M5989 4202 c10 -7 11 -14 2 -28 -10 -18 -10 -18 -11 1 -1 15 -3 16
-7 5 -3 -8 -11 -19 -17 -23 -6 -4 2 -6 19 -5 24 2 30 8 30 27 0 13 -7 26 -15
28 -12 4 -12 3 -1 -5z"/>
<path d="M5295 4192 c6 -6 28 -13 50 -17 49 -8 28 9 -25 20 -24 5 -32 4 -25
-3z"/>
<path d="M5943 4133 c9 -2 23 -2 30 0 6 3 -1 5 -18 5 -16 0 -22 -2 -12 -5z"/>
<path d="M2480 4098 c0 -21 5 -38 10 -38 13 0 13 40 0 60 -7 11 -10 5 -10 -22z"/>
<path d="M2490 4010 c0 -5 5 -10 11 -10 5 0 7 5 4 10 -3 6 -8 10 -11 10 -2 0
-4 -4 -4 -10z"/>
<path d="M3852 3860 c0 -14 2 -19 5 -12 2 6 2 18 0 25 -3 6 -5 1 -5 -13z"/>
<path d="M2688 3714 c-5 -4 -8 -21 -8 -38 0 -21 3 -27 11 -19 6 6 9 23 7 38
-2 15 -6 23 -10 19z"/>
<path d="M5508 3706 c-46 -34 -73 -165 -49 -229 11 -28 76 -97 92 -97 8 0 6 7
-4 18 -10 10 -17 23 -17 29 0 6 -4 13 -9 15 -10 3 -15 43 -12 98 1 22 4 30 9
22 5 -7 7 21 5 63 -2 46 1 75 7 75 5 0 10 5 10 10 0 13 -11 12 -32 -4z"/>
<path d="M65 3590 c3 -5 8 -10 11 -10 2 0 4 5 4 10 0 6 -5 10 -11 10 -5 0 -7
-4 -4 -10z"/>
<path d="M0 3530 c0 -5 5 -10 11 -10 5 0 7 5 4 10 -3 6 -8 10 -11 10 -2 0 -4
-4 -4 -10z"/>
<path d="M5744 3485 c-18 -15 -18 -16 10 -39 l29 -24 48 24 c53 28 101 26 143
-7 35 -27 68 -25 64 3 -2 19 -14 25 -73 40 -91 21 -195 23 -221 3z"/>
<path d="M3990 3405 c-7 -9 -8 -15 -2 -15 5 0 12 7 16 15 3 8 4 15 2 15 -2 0
-9 -7 -16 -15z"/>
<path d="M6227 3403 c-10 -9 -9 -23 2 -23 5 0 11 7 15 15 5 15 -5 20 -17 8z"/>
<path d="M5649 3275 c0 0 -2 -10 -5 -21 -3 -17 4 -25 26 -34 17 -7 30 -19 30
-26 0 -22 20 -16 29 9 6 15 5 25 -3 32 -7 6 -15 16 -17 24 -4 10 -47 22 -60
16z"/>
<path d="M5750 3271 c0 -5 5 -13 10 -16 6 -3 10 -2 10 4 0 5 -4 13 -10 16 -5
3 -10 2 -10 -4z"/>
<path d="M4005 3230 c-3 -5 -1 -10 4 -10 6 0 11 5 11 10 0 6 -2 10 -4 10 -3 0
-8 -4 -11 -10z"/>
<path d="M5581 3188 c-1 -18 -21 -26 -21 -9 0 5 -11 8 -25 7 -29 -1 -34 -16
-6 -16 14 0 18 -6 16 -25 -3 -20 2 -26 23 -32 15 -3 32 -13 39 -22 11 -14 12
-14 13 2 0 21 16 23 24 2 8 -22 26 -18 26 5 0 11 4 20 9 20 4 0 6 -11 3 -25
-4 -24 11 -35 23 -15 3 5 12 7 21 3 8 -3 22 3 30 13 14 17 15 17 10 2 -3 -12
0 -18 9 -18 8 0 15 8 16 18 0 14 2 14 9 -3 6 -15 8 -11 7 20 0 22 -2 34 -5 27
-7 -23 -21 -12 -28 23 -6 36 -24 39 -24 4 0 -22 -10 -24 -29 -6 -11 10 -14 9
-18 -1 -3 -9 -13 -4 -29 15 -28 33 -43 24 -19 -13 9 -14 13 -24 8 -22 -4 3
-22 11 -40 18 -18 8 -34 21 -37 30 -3 12 -4 11 -5 -2z"/>
<path d="M12405 3184 c-27 -7 -68 -16 -90 -18 -22 -2 -80 -12 -130 -21 -49
-10 -128 -21 -175 -25 -47 -5 -161 -20 -255 -34 -93 -14 -185 -26 -202 -26
-18 0 -33 -4 -33 -9 0 -4 -37 -11 -82 -15 -46 -3 -110 -10 -143 -15 -33 -6
-127 -19 -210 -31 -82 -11 -176 -25 -207 -30 -32 -6 -82 -14 -110 -18 -29 -5
-77 -19 -105 -33 -42 -19 -53 -29 -53 -47 0 -13 4 -21 8 -18 12 7 112 -91 108
-106 -1 -7 -1 -10 1 -6 3 4 14 -1 25 -12 11 -10 17 -23 14 -29 -4 -5 -1 -13 5
-16 5 -4 8 -13 5 -21 -3 -8 1 -14 9 -14 8 0 15 -7 15 -15 0 -14 18 -53 30 -65
3 -3 6 -26 7 -52 1 -26 9 -60 17 -76 8 -16 13 -32 9 -35 -3 -4 0 -58 7 -122
13 -111 15 -117 48 -152 19 -21 31 -38 26 -39 -5 -1 -22 -5 -39 -9 -25 -6 -27
-8 -13 -16 10 -5 19 -9 20 -8 8 6 48 -24 48 -36 0 -7 6 -16 13 -18 10 -4 10
-6 0 -6 -7 -1 -13 -9 -13 -19 0 -13 13 -23 40 -32 34 -11 40 -17 39 -39 -2
-24 -2 -24 -6 -3 -3 16 -11 22 -31 22 -15 0 -36 2 -47 4 -11 2 -15 1 -10 -1 6
-3 20 -17 31 -31 18 -22 21 -36 16 -80 -3 -35 -9 -52 -18 -52 -21 0 -17 -20 4
-20 9 -1 28 -7 41 -14 l24 -13 -32 -19 c-31 -18 -31 -19 -31 -96 0 -45 4 -78
10 -78 6 0 10 -18 10 -40 0 -22 -4 -40 -10 -40 -5 0 -10 -18 -10 -40 0 -34 -3
-40 -20 -40 -19 0 -21 -6 -19 -47 1 -27 -6 -65 -15 -86 -10 -23 -19 -81 -23
-150 -3 -61 -9 -114 -13 -117 -12 -9 -29 -184 -19 -194 12 -13 12 -46 -1 -46
-6 0 -10 -33 -10 -80 0 -47 -4 -80 -10 -80 -5 0 -10 -18 -10 -39 0 -22 -4 -43
-10 -46 -17 -10 -12 -75 5 -75 8 0 15 -4 15 -9 0 -17 -12 -41 -19 -37 -3 2 -7
-77 -8 -175 l-3 -179 990 0 990 0 -1 308 c0 169 -5 329 -10 357 -6 28 -12 79
-14 115 -2 36 -8 88 -14 115 -16 78 -41 248 -41 278 0 15 -4 27 -10 27 -5 0
-9 29 -9 64 1 35 -2 89 -6 120 -7 50 -10 56 -31 56 -21 0 -24 -5 -25 -37 -1
-21 -3 -30 -6 -20 -3 12 -14 17 -38 17 -18 0 -35 5 -37 11 -4 13 -48 3 -48
-11 0 -6 11 -12 25 -16 14 -3 25 -10 25 -15 0 -5 18 -9 40 -9 l41 0 -41 -41
c-25 -25 -40 -50 -40 -65 0 -26 -6 -36 -52 -86 -16 -16 -28 -34 -28 -39 0 -5
-18 -9 -40 -9 l-40 0 0 -40 0 -40 -115 0 -115 0 -1 38 c0 20 -1 55 -1 77 l-1
40 -4 -37 -4 -38 -80 0 -79 0 0 60 0 60 -40 0 c-33 0 -40 -3 -40 -20 0 -13 -7
-20 -20 -20 -11 0 -20 7 -20 15 0 8 -9 15 -20 15 -16 0 -20 7 -20 35 0 34 1
35 40 35 29 0 40 4 40 15 0 11 -11 15 -40 15 -27 0 -40 4 -40 13 0 17 -73 97
-88 97 -7 0 -12 16 -12 40 0 37 2 40 27 40 25 0 25 1 10 18 -10 10 -17 28 -17
40 0 12 -4 22 -10 22 -5 0 -10 18 -10 40 0 22 5 40 10 40 6 0 10 18 10 40 0
33 -3 40 -20 40 -19 0 -20 7 -20 120 0 113 1 120 20 120 11 0 20 5 20 11 0 7
12 23 27 37 18 16 23 27 15 30 -7 2 -12 21 -12 43 0 28 -4 39 -15 39 -23 0
-21 80 3 80 21 1 62 84 62 128 0 31 2 32 40 32 38 0 40 -2 40 -30 0 -16 5 -30
10 -30 6 0 10 7 10 15 0 10 10 15 30 15 28 0 30 -2 30 -40 l0 -40 40 0 c34 0
40 -3 40 -21 0 -20 4 -20 73 -15 226 18 247 18 247 5 0 -7 20 -32 46 -56 37
-35 41 -43 25 -43 -12 0 -21 -4 -21 -10 0 -5 -7 -10 -15 -10 -10 0 -15 -10
-15 -30 0 -25 4 -30 25 -30 21 0 25 -5 25 -30 0 -20 -5 -30 -15 -30 -8 0 -15
-4 -15 -10 0 -5 9 -10 19 -10 23 0 101 -40 101 -53 0 -4 -5 -17 -10 -28 -7
-13 -7 -19 0 -19 5 0 10 5 10 10 0 6 5 10 10 10 6 0 10 -18 10 -40 0 -36 3
-40 25 -40 16 0 25 6 25 15 0 8 5 15 11 15 6 0 8 7 5 15 -9 24 -19 248 -21
500 -2 127 -7 255 -13 285 -6 30 -10 150 -10 266 1 200 0 213 -19 238 -18 23
-28 26 -74 25 -30 0 -76 -7 -104 -15z m58 -861 c-13 -2 -33 -2 -45 0 -13 2 -3
4 22 4 25 0 35 -2 23 -4z m97 -230 c0 -9 -9 -12 -27 -10 -37 5 -40 24 -3 24
19 0 30 -5 30 -14z m-1360 -53 l0 -40 40 0 40 0 0 -40 c0 -40 0 -40 -40 -40
-38 0 -110 27 -110 41 0 3 12 12 28 18 25 10 27 15 24 56 -3 28 0 45 7 45 6 0
11 -18 11 -40z m180 -80 c0 -22 -4 -40 -10 -40 -5 0 -10 18 -10 40 0 22 5 40
10 40 6 0 10 -18 10 -40z m1200 30 c0 -5 -4 -10 -10 -10 -5 0 -10 5 -10 10 0
6 5 10 10 10 6 0 10 -4 10 -10z m-1460 -191 l0 -41 43 3 42 4 -4 -42 -3 -43
-64 0 -64 0 0 40 c0 29 4 40 15 40 11 0 15 11 15 40 0 22 5 40 10 40 6 0 10
-18 10 -41z m400 -143 c0 -13 7 -26 15 -30 8 -3 15 -10 15 -16 0 -5 -7 -10
-15 -10 -8 0 -15 -4 -15 -10 0 -5 9 -10 20 -10 11 0 20 5 20 10 0 6 9 10 20
10 11 0 20 -4 20 -10 0 -5 -9 -10 -20 -10 -16 0 -20 -7 -20 -30 0 -23 -4 -30
-20 -30 -17 0 -20 -7 -20 -40 l0 -40 -40 0 -40 0 0 40 c0 33 -3 40 -20 40 -17
0 -20 7 -20 40 0 33 3 40 20 40 17 0 20 7 20 40 l0 40 40 0 c36 0 40 -3 40
-24z m80 8 c0 -9 -5 -14 -12 -12 -18 6 -21 28 -4 28 9 0 16 -7 16 -16z m-312
-64 c7 0 12 -15 12 -40 l0 -40 -50 0 -50 0 0 46 0 46 38 -6 c20 -3 43 -5 50
-6z m1379 -232 c-3 -8 -6 -5 -6 6 -1 11 2 17 5 13 3 -3 4 -12 1 -19z m-1067 2
c0 -5 -9 -10 -21 -10 -28 0 -49 -23 -50 -57 -1 -19 -3 -22 -6 -10 -3 11 -2 34
2 53 5 31 9 34 40 34 19 0 35 -4 35 -10z"/>
<path d="M5205 3134 c-11 -8 -25 -12 -31 -10 -10 4 -54 -36 -54 -49 0 -7 40
16 58 33 7 6 19 12 26 12 8 0 19 7 26 15 16 19 1 19 -25 -1z"/>
<path d="M5285 3140 c-3 -5 1 -10 10 -10 9 0 13 5 10 10 -3 6 -8 10 -10 10 -2
0 -7 -4 -10 -10z"/>
<path d="M5360 3118 c1 -31 2 -32 15 -15 7 11 11 25 8 33 -10 25 -23 15 -23
-18z"/>
<path d="M5040 3110 c0 -5 4 -10 9 -10 6 0 13 5 16 10 3 6 -1 10 -9 10 -9 0
-16 -4 -16 -10z"/>
<path d="M5244 3075 c-22 -25 -37 -45 -33 -45 4 0 11 5 14 10 14 23 22 -2 9
-29 -19 -37 -9 -65 17 -50 11 6 19 6 19 0 0 -5 8 -7 18 -5 20 6 27 55 9 66 -8
5 -6 8 5 8 11 0 15 5 12 15 -4 8 -1 15 5 15 6 0 10 -3 10 -7 -5 -32 2 -43 26
-39 22 4 25 2 20 -15 -9 -26 -3 -24 41 16 21 19 33 35 28 35 -6 0 -15 -5 -22
-12 -9 -9 -12 -9 -12 1 0 7 -4 9 -10 6 -16 -10 -11 17 7 37 14 16 15 18 0 18
-9 0 -19 -4 -22 -10 -11 -18 -35 -10 -35 12 0 20 -2 19 -25 -8 -14 -16 -25
-32 -25 -35 0 -4 -8 -10 -17 -13 -16 -6 -16 -6 0 12 17 19 24 62 9 62 -4 0
-25 -20 -48 -45z m136 -30 c0 -8 -4 -15 -10 -15 -5 0 -10 7 -10 15 0 8 5 15
10 15 6 0 10 -7 10 -15z"/>
<path d="M5187 3076 c-4 -10 -13 -13 -23 -9 -14 5 -16 2 -12 -15 4 -12 2 -20
-3 -16 -9 5 -13 -19 -11 -61 0 -11 -2 -14 -4 -7 -9 19 -20 14 -21 -10 -2 -16
0 -19 6 -10 5 8 11 13 15 13 20 -3 26 2 36 34 6 19 8 40 4 46 -4 7 -3 9 4 5 6
-3 14 3 17 15 8 24 0 37 -8 15z"/>
<path d="M5996 3052 c-3 -6 -1 -14 5 -17 15 -10 25 3 12 16 -7 7 -13 7 -17 1z"/>
<path d="M4968 3023 c7 -3 16 -2 19 1 4 3 -2 6 -13 5 -11 0 -14 -3 -6 -6z"/>
<path d="M4966 3001 c-4 -6 -13 -8 -21 -4 -10 3 -15 -1 -15 -11 0 -13 4 -15
20 -6 11 5 22 10 25 10 7 0 8 10 2 16 -3 3 -8 1 -11 -5z"/>
<path d="M4900 2975 c0 -8 5 -15 10 -15 6 0 10 7 10 15 0 8 -4 15 -10 15 -5 0
-10 -7 -10 -15z"/>
<path d="M4345 2959 c-4 -6 -5 -12 -2 -15 2 -3 7 2 10 11 7 17 1 20 -8 4z"/>
<path d="M9990 2870 c-52 -11 -126 -26 -165 -35 -38 -8 -113 -22 -165 -30 -52
-8 -114 -19 -137 -25 -104 -24 -139 -33 -148 -39 -5 -3 -14 -6 -20 -7 -5 0
-16 -2 -23 -2 -7 -1 -10 -7 -7 -12 10 -16 -37 -29 -57 -16 -17 10 -17 11 0 18
10 5 4 6 -14 2 -17 -3 -52 -7 -76 -9 -54 -5 -96 -20 -123 -44 -45 -39 -255
-64 -255 -30 0 21 -97 1 -130 -26 -8 -7 -27 -15 -42 -19 -16 -3 -28 -13 -28
-21 0 -12 14 -15 67 -15 37 0 80 4 97 9 17 5 58 17 91 28 47 14 86 17 184 15
84 -1 138 2 171 12 57 17 235 31 282 22 46 -8 105 -64 123 -117 11 -30 18 -95
21 -209 2 -91 9 -239 14 -330 15 -276 30 -629 40 -965 5 -176 15 -449 21 -607
6 -157 9 -298 5 -312 -3 -14 -3 -44 0 -66 l7 -40 93 0 c69 0 94 3 94 13 0 6
-5 80 -10 162 -6 83 -10 240 -10 350 -1 255 -16 584 -30 620 -16 42 -26 351
-12 368 9 11 9 22 1 47 -9 24 -9 34 0 40 9 5 12 123 10 491 -2 516 -1 521 47
575 30 33 96 53 166 52 35 0 73 4 83 9 36 19 80 37 87 35 13 -3 40 47 34 63
-3 8 -18 20 -33 26 -15 6 -35 15 -45 20 -35 18 -116 18 -208 -1z"/>
<path d="M5207 2834 c-36 -19 -25 -39 11 -20 15 8 40 12 56 11 15 -2 38 1 50
7 17 7 32 6 59 -6 24 -9 39 -11 43 -5 10 17 0 20 -97 24 -72 4 -101 1 -122
-11z"/>
<path d="M8365 2575 c-22 -7 -59 -18 -82 -25 -24 -6 -43 -15 -43 -20 0 -17
109 -11 219 12 l106 23 -60 7 c-33 4 -69 10 -80 12 -11 3 -38 -2 -60 -9z"/>
<path d="M5784 2536 c-3 -8 -12 -12 -20 -9 -7 3 -17 -2 -20 -11 -3 -9 -9 -14
-13 -12 -3 2 -7 -7 -8 -21 -1 -19 1 -22 8 -12 13 20 12 -7 -1 -31 -13 -24 3
-35 20 -15 16 20 30 19 30 -1 0 -23 24 -11 28 14 5 36 19 25 26 -20 4 -23 11
-47 15 -53 5 -5 11 -19 14 -30 4 -18 5 -17 6 3 1 19 5 22 21 17 14 -5 20 -2
20 9 0 19 11 21 28 4 9 -9 12 -8 12 5 0 22 6 21 30 -3 26 -26 37 -19 46 24 4
25 10 33 22 29 12 -3 17 3 18 22 2 21 -2 25 -17 20 -14 -5 -22 0 -29 20 -5 14
-15 23 -20 20 -6 -4 -8 -11 -5 -16 4 -5 -1 -9 -10 -9 -9 0 -14 4 -10 9 6 11
-31 35 -56 37 -22 2 -91 14 -112 20 -10 3 -20 -1 -23 -10z m224 -114 c3 -21 1
-22 -17 -12 -26 13 -28 43 -3 38 9 -2 18 -14 20 -26z"/>
<path d="M7985 2515 c-27 -7 -61 -18 -75 -24 -23 -9 -22 -10 15 -12 22 -1 49
-2 60 -3 11 -1 40 5 65 12 76 23 77 24 50 32 -36 11 -59 10 -115 -5z"/>
<path d="M5675 2502 c-6 -4 -11 -16 -13 -27 -3 -18 -2 -18 13 3 17 24 17 36 0
24z"/>
<path d="M7679 2475 c-4 -4 -45 -9 -118 -14 -26 -2 10 -31 38 -31 36 0 161 33
161 42 0 9 -73 11 -81 3z"/>
<path d="M5040 2429 c0 -5 5 -7 10 -4 6 3 10 8 10 11 0 2 -4 4 -10 4 -5 0 -10
-5 -10 -11z"/>
<path d="M5677 2434 c-6 -10 9 -42 16 -34 3 3 1 14 -3 24 -3 11 -9 15 -13 10z"/>
<path d="M7280 2425 c-47 -7 -92 -14 -100 -15 -29 -3 24 -19 65 -19 57 -1 116
10 109 20 -3 5 7 9 21 9 15 0 24 4 20 10 -7 12 -4 12 -115 -5z"/>
<path d="M6086 2341 c-3 -5 1 -11 9 -15 9 -3 15 0 15 9 0 16 -16 20 -24 6z"/>
<path d="M5165 2320 c-3 -6 1 -7 9 -4 18 7 21 14 7 14 -6 0 -13 -4 -16 -10z"/>
<path d="M11840 2290 c0 -28 2 -30 40 -30 38 0 40 2 40 30 0 28 -2 30 -40 30
-38 0 -40 -2 -40 -30z"/>
<path d="M2880 2140 c0 -12 -12 -26 -31 -35 -29 -16 -31 -15 -60 16 l-30 32
-87 -6 c-48 -3 -94 -8 -103 -12 -17 -6 -26 -41 -36 -125 l-5 -46 74 -69 c40
-37 94 -84 121 -104 26 -19 47 -39 47 -43 0 -4 6 -8 13 -8 7 0 20 -8 29 -17
32 -34 107 -93 119 -93 7 0 2 56 -7 80 -10 25 -11 164 -1 178 13 17 3 182 -12
191 -9 6 -9 15 -1 35 14 39 13 46 -10 46 -13 0 -20 -7 -20 -20z"/>
<path d="M11840 2144 c0 -14 3 -14 15 -4 8 7 15 14 15 16 0 2 -7 4 -15 4 -8 0
-15 -7 -15 -16z"/>
<path d="M5500 2115 c0 -8 0 -18 -1 -22 0 -4 4 -9 10 -11 6 -2 11 8 11 22 0
14 -4 26 -10 26 -5 0 -10 -7 -10 -15z"/>
<path d="M5550 2111 c0 -10 36 -21 44 -14 3 3 3 10 0 14 -7 12 -44 12 -44 0z"/>
<path d="M5590 2010 c0 -11 2 -20 4 -20 2 0 6 9 9 20 3 11 1 20 -4 20 -5 0 -9
-9 -9 -20z"/>
<path d="M10938 1993 c7 -3 16 -2 19 1 4 3 -2 6 -13 5 -11 0 -14 -3 -6 -6z"/>
<path d="M5670 1920 c0 -5 5 -10 11 -10 5 0 7 5 4 10 -3 6 -8 10 -11 10 -2 0
-4 -4 -4 -10z"/>
<path d="M3950 1846 c0 -16 28 -42 36 -33 3 3 3 15 -1 26 -7 23 -35 29 -35 7z"/>
<path d="M12643 1810 c0 -30 2 -43 4 -27 2 15 2 39 0 55 -2 15 -4 2 -4 -28z"/>
<path d="M4034 1816 c-4 -11 -2 -21 7 -27 18 -11 24 5 10 28 -9 17 -10 17 -17
-1z"/>
<path d="M4080 1760 c8 -5 22 -10 30 -10 13 0 13 1 0 10 -8 5 -22 10 -30 10
-13 0 -13 -1 0 -10z"/>
<path d="M12553 1720 c0 -25 2 -35 4 -22 2 12 2 32 0 45 -2 12 -4 2 -4 -23z"/>
<path d="M12640 1696 c0 -16 -4 -25 -10 -21 -6 4 -10 -10 -10 -34 0 -23 5 -41
10 -41 6 0 10 -18 10 -40 0 -22 -4 -40 -10 -40 -5 0 -9 -19 -9 -42 1 -24 3
-35 6 -25 5 20 19 22 27 5 3 -7 5 4 3 25 -2 20 1 37 6 37 4 0 5 5 1 11 -4 6
-8 49 -9 96 -2 46 -6 87 -9 90 -3 4 -6 -6 -6 -21z"/>
<path d="M6631 1480 c0 -29 1 -32 10 -17 7 11 7 23 0 35 -9 14 -10 11 -10 -18z"/>
<path d="M6320 1421 c-17 -33 -12 -61 10 -61 12 0 20 7 20 18 0 9 3 27 6 40 8
28 -21 31 -36 3z"/>
<path d="M10940 1426 c0 -8 5 -18 10 -21 6 -3 10 3 10 14 0 12 -4 21 -10 21
-5 0 -10 -6 -10 -14z"/>
<path d="M5254 1085 c-10 -39 -10 -157 0 -435 l8 -245 -31 -65 c-17 -36 -31
-72 -31 -80 0 -11 55 87 72 131 8 20 45 17 69 -5 14 -13 35 -28 46 -34 18 -10
22 -8 28 16 5 15 9 36 11 47 3 26 -15 85 -27 85 -5 0 -9 5 -9 10 0 6 7 10 16
8 10 -2 19 2 21 9 2 6 -5 13 -16 15 -20 3 -21 11 -25 112 -3 60 -9 113 -15
119 -6 6 -11 23 -11 39 0 15 -4 37 -9 50 -5 13 -24 70 -42 128 -38 120 -45
134 -55 95z"/>
<path d="M2050 1084 c0 -9 12 -28 26 -41 14 -13 24 -20 22 -16 -2 4 -10 23
-17 41 -14 34 -31 43 -31 16z"/>
<path d="M2100 1000 c0 -5 5 -10 10 -10 6 0 10 5 10 10 0 6 -4 10 -10 10 -5 0
-10 -4 -10 -10z"/>
<path d="M2102 962 c-20 -16 -21 -20 -10 -50 10 -25 18 -32 40 -32 19 0 28 -5
28 -16 0 -13 3 -14 14 -5 12 10 10 20 -11 61 -14 28 -28 52 -32 54 -3 3 -17
-3 -29 -12z"/>
<path d="M6338 920 c2 -22 9 -40 14 -40 6 0 8 10 4 23 -3 12 -6 30 -6 40 0 9
-3 17 -8 17 -4 0 -6 -18 -4 -40z"/>
<path d="M6320 830 c0 -16 5 -32 10 -35 6 -3 10 -3 10 2 0 4 3 18 6 29 4 14 0
23 -10 27 -12 5 -16 0 -16 -23z"/>
<path d="M2187 831 c-3 -14 0 -21 9 -21 16 0 18 9 5 28 -6 10 -10 9 -14 -7z"/>
<path d="M2216 792 c-3 -6 -1 -14 5 -17 15 -10 25 3 12 16 -7 7 -13 7 -17 1z"/>
<path d="M2246 724 c-4 -11 -2 -23 7 -29 7 -5 17 -22 21 -37 6 -27 20 -36 30
-20 2 4 -8 29 -23 56 -23 39 -29 44 -35 30z"/>
<path d="M6095 720 c-7 -11 11 -40 25 -40 4 0 5 11 2 25 -5 26 -16 32 -27 15z"/>
<path d="M3795 653 c-28 -7 -45 -23 -45 -42 0 -19 -36 -45 -50 -36 -6 4 -10 1
-10 -5 0 -8 11 -9 33 -5 25 6 29 4 20 -5 -6 -7 -9 -19 -6 -26 3 -8 0 -14 -7
-14 -6 0 -8 5 -5 10 3 6 1 10 -4 10 -19 0 -12 -40 7 -41 10 0 12 -3 5 -6 -7
-2 -13 -14 -13 -24 0 -11 -4 -17 -10 -14 -5 3 -10 1 -10 -4 0 -6 7 -11 17 -11
15 0 15 -1 0 -18 -22 -24 -22 -46 -1 -38 9 3 18 6 20 6 2 0 4 7 4 15 0 9 7 18
15 21 8 4 15 11 15 16 0 6 -6 5 -15 -2 -12 -10 -15 -10 -15 4 0 9 5 16 10 16
6 0 10 9 10 20 0 11 5 20 12 20 9 0 9 3 1 11 -7 7 -8 20 -3 34 5 13 7 31 4 41
-5 22 2 34 36 57 25 17 22 19 -15 10z"/>
<path d="M3890 629 c0 -5 5 -7 10 -4 6 3 10 8 10 11 0 2 -4 4 -10 4 -5 0 -10
-5 -10 -11z"/>
<path d="M2300 616 c0 -8 7 -22 16 -30 8 -9 13 -20 9 -25 -6 -11 13 -26 22
-18 7 7 -29 86 -39 87 -5 0 -8 -6 -8 -14z"/>
<path d="M3710 600 c-8 -5 -10 -10 -5 -10 6 0 17 5 25 10 8 5 11 10 5 10 -5 0
-17 -5 -25 -10z"/>
<path d="M3875 600 c-3 -5 -2 -10 4 -10 5 0 13 5 16 10 3 6 2 10 -4 10 -5 0
-13 -4 -16 -10z"/>
<path d="M3835 580 c-3 -5 -2 -10 4 -10 5 0 13 5 16 10 3 6 2 10 -4 10 -5 0
-13 -4 -16 -10z"/>
<path d="M3860 557 c-15 -12 -16 -47 -1 -47 13 0 31 24 31 42 0 21 -9 22 -30
5z"/>
<path d="M2337 523 c-12 -12 -7 -22 8 -17 8 4 15 10 15 15 0 11 -14 12 -23 2z"/>
<path d="M3853 489 c-12 -12 -7 -39 8 -39 5 0 9 9 9 19 0 11 6 22 13 24 8 4 7
6 -3 6 -9 1 -21 -4 -27 -10z"/>
<path d="M2357 473 c-14 -13 -6 -30 17 -41 18 -8 23 -16 19 -31 -5 -19 20 -41
33 -29 5 6 -16 59 -27 68 -3 3 -8 13 -12 23 -7 18 -19 22 -30 10z"/>
<path d="M4080 470 c0 -5 4 -10 9 -10 6 0 13 5 16 10 3 6 -1 10 -9 10 -9 0
-16 -4 -16 -10z"/>
<path d="M3845 420 c-3 -5 1 -10 9 -10 9 0 16 5 16 10 0 6 -4 10 -9 10 -6 0
-13 -4 -16 -10z"/>
<path d="M3854 394 c-18 -14 -18 -15 6 -8 31 8 50 24 29 24 -8 0 -24 -7 -35
-16z"/>
<path d="M3855 364 c-43 -22 -48 -29 -31 -43 19 -16 52 -6 60 17 3 9 9 23 12
30 8 16 -5 15 -41 -4z"/>
<path d="M4135 360 c-3 -5 -1 -10 4 -10 6 0 11 5 11 10 0 6 -2 10 -4 10 -3 0
-8 -4 -11 -10z"/>
<path d="M2400 340 c13 -8 12 -10 -3 -10 -10 0 -15 -4 -12 -10 10 -17 32 -11
38 10 4 15 0 20 -16 20 -18 0 -19 -2 -7 -10z"/>
<path d="M2437 336 c-18 -47 2 -113 27 -89 12 12 6 43 -9 43 -8 0 -15 5 -15
11 0 6 7 9 15 5 19 -7 19 4 2 28 -13 18 -14 18 -20 2z"/>
<path d="M3636 305 c4 -8 10 -15 15 -15 4 0 6 7 3 15 -4 8 -10 15 -15 15 -4 0
-6 -7 -3 -15z"/>
<path d="M3853 303 c-7 -2 -13 -16 -13 -29 0 -15 4 -23 10 -19 6 4 8 11 5 16
-4 5 -2 9 4 9 5 0 11 -6 14 -12 7 -21 17 -4 10 20 -5 23 -9 24 -30 15z"/>
<path d="M2370 266 c0 -2 7 -6 15 -10 8 -3 15 -1 15 4 0 6 -7 10 -15 10 -8 0
-15 -2 -15 -4z"/>
<path d="M2476 255 c-3 -9 0 -15 9 -15 16 0 20 16 6 24 -5 3 -11 -1 -15 -9z"/>
<path d="M3610 234 c0 -8 5 -12 10 -9 6 4 8 11 5 16 -9 14 -15 11 -15 -7z"/>
<path d="M2420 226 c0 -9 30 -14 35 -6 4 6 -3 10 -14 10 -12 0 -21 -2 -21 -4z"/>
<path d="M2470 206 c0 -14 6 -26 13 -26 6 0 23 -3 36 -7 18 -4 22 -3 19 8 -3
8 -10 13 -16 12 -5 -1 -9 5 -8 15 1 11 -7 18 -21 20 -19 3 -23 -1 -23 -22z"/>
<path d="M810 209 c0 -5 5 -7 10 -4 6 3 10 8 10 11 0 2 -4 4 -10 4 -5 0 -10
-5 -10 -11z"/>
<path d="M2410 200 c0 -6 7 -10 15 -10 8 0 15 2 15 4 0 2 -7 6 -15 10 -8 3
-15 1 -15 -4z"/>
<path d="M2400 166 c0 -2 7 -6 15 -10 8 -3 15 -1 15 4 0 6 -7 10 -15 10 -8 0
-15 -2 -15 -4z"/>
<path d="M2463 163 c-21 -7 -15 -33 7 -33 11 0 20 6 20 14 0 18 -11 25 -27 19z"/>
<path d="M2502 144 c-2 -29 28 -41 45 -18 15 21 10 30 -20 36 -18 4 -23 0 -25
-18z"/>
<path d="M2559 123 c-1 -5 -1 -11 0 -15 0 -5 -15 -8 -34 -8 -28 0 -35 -4 -35
-20 0 -23 25 -27 34 -5 8 22 25 18 19 -5 -4 -15 0 -20 15 -20 11 0 23 7 26 16
8 22 8 24 -8 24 -9 0 -12 7 -9 20 3 11 3 20 -1 20 -3 0 -7 -3 -7 -7z"/>
<path d="M2456 83 c-6 -14 -5 -15 5 -6 7 7 10 15 7 18 -3 3 -9 -2 -12 -12z"/>
<path d="M1308 73 c7 -3 16 -2 19 1 4 3 -2 6 -13 5 -11 0 -14 -3 -6 -6z"/>
<path d="M2590 50 c0 -5 7 -10 15 -10 8 0 15 5 15 10 0 6 -7 10 -15 10 -8 0
-15 -4 -15 -10z"/>
<path d="M2496 25 c-3 -9 -11 -13 -17 -9 -8 4 -9 3 -5 -4 4 -7 11 -12 16 -12
9 0 23 31 16 37 -2 2 -6 -3 -10 -12z"/>
<path d="M5142 28 c-16 -16 -15 -28 3 -28 8 0 15 9 15 20 0 23 -2 24 -18 8z"/>
<path d="M1348 23 c7 -3 16 -2 19 1 4 3 -2 6 -13 5 -11 0 -14 -3 -6 -6z"/>
<path d="M2526 15 c-3 -8 -1 -15 3 -15 5 0 12 6 14 13 4 9 6 9 6 -1 1 -15 21
-6 21 9 0 15 -37 10 -44 -6z"/>
<path d="M2586 14 c-4 -10 2 -14 19 -14 30 0 33 16 6 23 -12 3 -22 -1 -25 -9z"/>
<path d="M1238 13 c7 -3 16 -2 19 1 4 3 -2 6 -13 5 -11 0 -14 -3 -6 -6z"/>
</g>
</svg>
